<?xml version="1.0" encoding="UTF-8"?>
<svg id="Capa_2" data-name="Capa 2" xmlns="http://www.w3.org/2000/svg" viewBox="0 0 313.91 101.14">
  <defs>
    <style>
      .cls-1, .cls-2 {
        fill: #001f3f;
      }

      .cls-3 {
        fill: #fdfdfd;
      }

      .cls-2 {
        font-family: CaptainCanaveral, 'Captain Canaveral';
        font-size: 53.85px;
      }
    </style>
  </defs>
  <g id="Capa_1-2" data-name="Capa 1">
    <g>
      <text class="cls-2" transform="translate(113.43 72.87)"><tspan x="0" y="0">Med Appoint</tspan></text>
      <path class="cls-1" d="M101.15,50.61c0,27.96-22.68,50.59-50.74,50.53C22.09,101.08-.62,77.76,.01,49.4,.63,21.86,23.47-.61,51.75,.01c27.03,.6,49.36,22.64,49.4,50.6Zm-34.77-1.41s-.04-.04-.07-.06c0,.02,0,.05,0,.07,.03,0,.05-.02,.08-.03-.17,.11-.04,.23,0,.32,1.46,2.87,2.97,5.71,4.2,8.69,.24,.59,.73,.95,1.36,1.14,1.84,.58,3.24,2.65,3.12,4.57-.15,2.32-1.8,4.16-4.1,4.57-2.08,.37-4.27-.82-5.16-2.8-.91-2.02-.28-4.42,1.53-5.84,.3-.23,.58-.49,.88-.72,.48-.39,.57-.84,.4-1.45-1.25-4.46-3.81-7.97-7.54-10.67-.43-.31-.59-.23-.84,.2-3.27,5.82-6.56,11.63-9.85,17.43-.08,.15-.1,.37-.37,.4-.07-.12-.16-.24-.22-.37-1.58-2.93-3.15-5.86-4.73-8.79-1.54-2.87-3.1-5.75-4.62-8.63-.22-.41-.42-.49-.83-.3-.62,.28-1.23,.56-1.76,.98-4.43,3.52-6.48,8.15-6.4,13.77,0,.36,.17,.51,.48,.64,1.44,.59,2.7,1.47,3.75,2.62,2.07,2.27,3.07,4.94,2.94,8.02-.02,.47-.26,.79-.66,1.06,.31-3.67-.77-6.79-3.35-9.35-1.95-1.94-4.77-2.09-6.97-.43-.73,.55-1.33,1.22-1.85,1.97-1.32,1.91-1.86,4.08-2.12,6.34-.16,1.4,.28,1.98,1.68,2.22,.1,.02,.22,.02,.31,.06,.52,.22,.79,.66,.79,1.19,0,.47-.3,.85-.77,.98-.43,.11-.93,.11-1.18-.35-.73-1.31-1.44-2.63-1.34-4.21,.05-.88,.08-1.77,.24-2.64,.37-2.02,1.05-3.91,2.88-5.07,1.91-1.21,3.11-2.89,3.57-5.07,.65-3.08,1.83-5.94,3.37-8.67,.28-.49,.52-1,.78-1.52-.18,0-.3,.05-.4,.11-3.24,1.87-6.12,4.17-8.53,7.04-3.78,4.5-5.92,9.74-7.01,15.47-.34,1.79,.05,3.29,1.23,4.69,2.1,2.49,4.49,4.62,7.28,6.29,6.25,3.74,13.18,5.06,20.32,5.58,2.01,.15,4.04,.02,6.07,.02,.93,0,1.87,.1,2.78-.04,3.49-.54,7-1.06,10.4-2.06,6.35-1.86,11.8-5.1,15.81-10.5,.72-.97,.98-2.02,.8-3.21-1.09-7.42-4.38-13.69-9.84-18.82-1.99-1.87-4.2-3.42-6.51-4.85ZM50.3,15.19c-8.43-.05-15.8,6.8-15.88,15.73-.08,8.89,7.05,16.14,15.74,16.14,8.97,0,16.08-7.04,16.14-15.88,.06-8.68-7.08-16.08-16-15.99Zm19.97,45.35c-1.79,0-3.25,1.41-3.25,3.17,0,1.75,1.46,3.24,3.2,3.25,1.71,.01,3.22-1.5,3.24-3.23,.01-1.71-1.45-3.18-3.18-3.18Z"/>
      <path class="cls-3" d="M66.49,49.13c2.31,1.43,4.52,2.99,6.51,4.85,5.47,5.13,8.75,11.4,9.84,18.82,.18,1.19-.09,2.24-.8,3.21-4.01,5.4-9.45,8.63-15.81,10.5-3.4,1-6.91,1.52-10.4,2.06-.91,.14-1.85,.04-2.78,.04-2.02,0-4.05,.12-6.07-.02-7.13-.52-14.06-1.84-20.32-5.58-2.79-1.67-5.18-3.8-7.28-6.29-1.18-1.39-1.57-2.89-1.23-4.69,1.09-5.73,3.22-10.97,7.01-15.47,2.41-2.87,5.3-5.17,8.53-7.04,.1-.06,.22-.1,.4-.11-.26,.51-.5,1.03-.78,1.52-1.54,2.73-2.72,5.59-3.37,8.67-.46,2.18-1.66,3.86-3.57,5.07-1.83,1.16-2.51,3.04-2.88,5.07-.16,.87-.19,1.76-.24,2.64-.1,1.58,.61,2.9,1.34,4.21,.26,.46,.75,.46,1.18,.35,.47-.12,.77-.51,.77-.98,0-.53-.27-.96-.79-1.19-.09-.04-.21-.04-.31-.06-1.4-.24-1.84-.81-1.68-2.22,.26-2.26,.81-4.43,2.12-6.34,.52-.75,1.12-1.42,1.85-1.97,2.19-1.66,5.02-1.5,6.97,.43,2.58,2.56,3.66,5.69,3.35,9.35,.4-.27,.64-.59,.66-1.06,.12-3.08-.87-5.75-2.94-8.02-1.05-1.15-2.3-2.03-3.75-2.62-.31-.13-.47-.28-.48-.64-.09-5.62,1.96-10.25,6.4-13.77,.53-.42,1.15-.7,1.76-.98,.41-.19,.61-.11,.83,.3,1.52,2.88,3.08,5.76,4.62,8.63,1.57,2.93,3.15,5.86,4.73,8.79,.07,.13,.15,.25,.22,.37,.26-.03,.28-.25,.37-.4,3.29-5.81,6.58-11.62,9.85-17.43,.24-.43,.41-.51,.84-.2,3.74,2.7,6.3,6.21,7.54,10.67,.17,.61,.08,1.06-.4,1.45-.29,.24-.58,.49-.88,.72-1.81,1.42-2.44,3.82-1.53,5.84,.89,1.99,3.08,3.18,5.16,2.8,2.3-.41,3.95-2.25,4.1-4.57,.12-1.92-1.28-3.99-3.12-4.57-.62-.2-1.11-.55-1.36-1.14-1.23-2.98-2.74-5.83-4.2-8.69-.05-.09-.17-.21,0-.32v.02Zm-2.85,24.75q0-1.32-1.35-1.39c-.19,0-.38-.02-.57-.04-1.13-.09-1.12-.1-1.21-1.21-.05-.62,.18-1.45-.24-1.81-.44-.37-1.25-.07-1.9-.12-.37-.03-.47,.13-.49,.47-.03,.74-.11,1.47-.15,2.2-.01,.32-.12,.43-.45,.44-.74,.01-1.47,.09-2.2,.1-.34,0-.5,.08-.48,.46,.03,.59,.02,1.18,0,1.77,0,.31,.09,.45,.43,.46,.74,.02,1.47,.09,2.2,.12,.34,.01,.54,.1,.53,.51-.01,.46,.06,.92,.08,1.38,.06,1.15,.05,1.15,1.22,1.15,1.3,0,1.28,0,1.41-1.31,.05-.54-.14-1.23,.22-1.58,.38-.36,1.08-.19,1.64-.23,1.28-.09,1.28-.09,1.28-1.38Zm-26.14,.5c-.84,.06-1.58,.24-2.1,.92-.38,.51-.31,.85,.21,1.37,.41,.4,.79,.38,1.21,.03,.6-.5,.85-1.17,1-1.91,.07-.36,.06-.54-.32-.41Z"/>
      <path class="cls-3" d="M50.4,15.12c8.92-.08,16.05,7.31,16,15.99-.06,8.84-7.17,15.88-16.14,15.88-8.68,0-15.81-7.26-15.74-16.14,.08-8.93,7.45-15.77,15.88-15.73Z"/>
      <path class="cls-3" d="M70.36,60.47c1.73,0,3.2,1.48,3.18,3.18-.02,1.74-1.53,3.25-3.24,3.23-1.74-.01-3.2-1.5-3.2-3.25,0-1.76,1.46-3.17,3.25-3.17Z"/>
      <path class="cls-3" d="M66.5,49.12s-.05,.02-.08,.03c0-.02,0-.05,0-.07,.02,.02,.04,.04,.07,.06,0,0,0-.02,0-.02Z"/>
      <path class="cls-1" d="M63.64,73.88c0,1.29,0,1.29-1.28,1.38-.56,.04-1.26-.13-1.64,.23-.36,.34-.17,1.04-.22,1.58-.13,1.3-.12,1.31-1.41,1.31-1.17,0-1.16,0-1.22-1.15-.02-.46-.1-.92-.08-1.38,.01-.41-.18-.49-.53-.51-.74-.03-1.47-.1-2.2-.12-.34,0-.43-.14-.43-.46,.02-.59,.02-1.18,0-1.77-.02-.38,.14-.45,.48-.46,.74-.01,1.47-.09,2.2-.1,.33,0,.44-.12,.45-.44,.03-.74,.11-1.47,.15-2.2,.02-.34,.12-.5,.49-.47,.65,.05,1.46-.25,1.9,.12,.42,.35,.19,1.19,.24,1.81,.09,1.12,.08,1.12,1.21,1.21,.19,.02,.38,.03,.57,.04q1.35,.07,1.35,1.39Z"/>
      <path class="cls-1" d="M38.27,73.07c.38-.13,.4,.05,.32,.41-.15,.74-.4,1.41-1,1.91-.42,.35-.8,.37-1.21-.03-.52-.52-.59-.86-.21-1.37,.51-.68,1.26-.87,2.1-.92Z"/>
    </g>
  </g>
</svg>